HIERARCHY
ROOT Hips
{
	OFFSET -131.695496 91.669037 -190.067505
	CHANNELS 6 Xposition Yposition Zposition Zrotation Yrotation Xrotation 
	JOINT RightUpLeg
	{
		OFFSET 0.103456 1.857829 10.548507
		CHANNELS 3 Xrotation Yrotation Zrotation
		JOINT RightLeg
		{
			OFFSET 43.500000 -0.000031 0.000008
			CHANNELS 3 Xrotation Yrotation Zrotation
			JOINT RightFoot
			{
				OFFSET 42.372200 0.000015 -0.000002
				CHANNELS 3 Xrotation Yrotation Zrotation
				JOINT RightToe
				{
					OFFSET 17.299992 -0.000004 0.000000
					CHANNELS 3 Xrotation Yrotation Zrotation
					End Site
					{
						OFFSET 0.000000 0.000000 0.000000
					}
				}
			}
		}
	}
	JOINT LeftUpLeg
	{
		OFFSET 0.103460 1.857824 -10.548508
		CHANNELS 3 Xrotation Yrotation Zrotation
		JOINT LeftLeg
		{
			OFFSET 43.500042 -0.000019 0.000004
			CHANNELS 3 Xrotation Yrotation Zrotation
			JOINT LeftFoot
			{
				OFFSET 42.372265 -0.000019 0.000016
				CHANNELS 3 Xrotation Yrotation Zrotation
				JOINT LeftToe
				{
					OFFSET 17.299999 -0.000001 -0.000006
					CHANNELS 3 Xrotation Yrotation Zrotation
					End Site
					{
						OFFSET 0.000000 0.000000 0.000000
					}
				}
			}
		}
	}
	JOINT Spine
	{
		OFFSET 6.901965 -2.603734 0.000001
		CHANNELS 3 Xrotation Yrotation Zrotation
		JOINT Spine1
		{
			OFFSET 12.588102 0.000006 -0.000006
			CHANNELS 3 Xrotation Yrotation Zrotation
			JOINT Spine2
			{
				OFFSET 12.343201 -0.000002 0.000010
				CHANNELS 3 Xrotation Yrotation Zrotation
				JOINT Neck
				{
					OFFSET 25.832899 -0.000004 -0.000009
					CHANNELS 3 Xrotation Yrotation Zrotation
					JOINT Head
					{
						OFFSET 11.766603 0.000001 0.000007
						CHANNELS 3 Xrotation Yrotation Zrotation
						End Site
						{
							OFFSET 0.000000 0.000000 0.000000
						}
					}
				}
				JOINT RightShoulder
				{
					OFFSET 19.745899 -1.480371 6.000098
					CHANNELS 3 Xrotation Yrotation Zrotation
					JOINT RightArm
					{
						OFFSET 11.284129 -0.000011 -0.000015
						CHANNELS 3 Xrotation Yrotation Zrotation
						JOINT RightForeArm
						{
							OFFSET 33.000046 0.000011 0.000030
							CHANNELS 3 Xrotation Yrotation Zrotation
							JOINT RightHand
							{
								OFFSET 25.200010 0.000012 -0.000000
								CHANNELS 3 Xrotation Yrotation Zrotation
								End Site
								{
									OFFSET 0.000000 0.000000 0.000000
								}
							}
						}
					}
				}
				JOINT LeftShoulder
				{
					OFFSET 19.746092 -1.480375 -6.000075
					CHANNELS 3 Xrotation Yrotation Zrotation
					JOINT LeftArm
					{
						OFFSET 11.284135 -0.000010 -0.000014
						CHANNELS 3 Xrotation Yrotation Zrotation
						JOINT LeftForeArm
						{
							OFFSET 33.000092 0.000016 0.000013
							CHANNELS 3 Xrotation Yrotation Zrotation
							JOINT LeftHand
							{
								OFFSET 25.199780 0.000135 0.000426
								CHANNELS 3 Xrotation Yrotation Zrotation
								End Site
								{
									OFFSET 0.000000 0.000000 0.000000
								}
							}
						}
					}
				}
			}
		}
	}
}
MOTION
Frames: 14
Frame Time: 0.033333
-103.846397 77.334373 435.972198 96.687079 13.015112 -77.822137 -160.022330 1.922900 179.077588 -12.392312 -6.933921 -5.544789 88.404662 4.734732 4.707356 21.454562 0.003105 0.000020 126.017318 4.190904 -163.479389 -99.084106 -2.304996 10.468332 78.885359 -6.078756 5.115495 21.454557 -0.003096 0.000005 9.515335 0.028481 -3.961173 9.005396 0.365123 -7.908003 8.690586 0.317377 -7.910048 -4.319245 17.093414 10.597891 -10.272184 -19.495964 20.186498 155.268423 -81.497462 23.483372 -29.718112 33.172494 2.965347 -26.726692 -14.061928 1.136136 13.036427 21.517787 13.840695 -153.318294 68.739222 28.942100 -3.185064 -52.084741 -25.101201 -53.013135 17.130874 -1.992787 2.638682 1.572303 -37.862754 
-105.336899 76.509842 432.571899 99.116734 13.579571 -75.039047 -158.248694 -0.338894 179.139155 -10.694802 -6.688088 -4.970937 85.883557 4.564615 5.135282 21.454563 0.003105 0.000019 114.078653 3.602289 -158.991805 -94.416232 -0.445449 6.629921 79.595883 -3.542536 4.722304 21.454560 -0.003096 -0.000001 10.911031 0.482686 -4.255125 11.758672 1.395849 -8.439385 11.444236 1.344920 -8.447594 -5.299480 19.091236 10.557211 -14.097924 -20.031661 21.710088 137.364735 -82.438669 41.486634 -32.325028 26.084436 -1.398116 -27.399604 -14.232679 1.158663 12.531166 9.263103 16.756962 -154.036844 70.114194 28.166100 -4.309221 -50.592536 -24.641226 -53.667327 16.902215 -1.999865 1.332766 2.453545 -36.513092 
-106.858200 75.841293 428.738312 102.328398 14.553962 -71.688928 -157.363993 -3.455499 178.708949 -9.373660 -6.356139 -3.978340 81.837189 4.079136 4.956285 21.454548 0.003109 0.000017 105.577656 3.047806 -157.919069 -81.159443 3.653817 2.858054 80.166654 -0.796924 5.577790 21.454553 -0.003089 -0.000002 12.142059 1.199610 -4.471161 14.163220 2.938300 -8.763875 13.848741 2.885400 -8.781279 -4.018272 20.127077 10.863712 -18.469065 -20.408699 23.163246 121.091304 -81.577689 57.922101 -32.964733 19.094586 -3.501782 -27.930322 -15.205412 1.230260 11.204337 -3.179379 17.764552 -154.198037 71.872803 27.957407 -5.814158 -49.777411 -23.641571 -52.196736 16.510739 -1.923503 1.610423 2.913182 -35.157217 
-108.691200 74.927307 424.016693 105.496595 15.016200 -67.981911 -155.988243 -6.790301 177.203999 -8.428892 -5.796206 -2.129899 76.258666 2.898536 4.277558 21.454558 0.003115 0.000018 102.743319 2.043199 -156.848205 -62.280568 4.970320 0.721695 79.030063 2.010354 10.461249 21.454551 -0.003094 0.000003 13.362581 2.125310 -4.719566 16.531771 4.903846 -9.093672 16.216811 4.848929 -9.122835 -2.353105 20.752154 11.271971 -23.055959 -21.577399 25.018127 111.093170 -80.858341 68.016888 -33.674308 14.108290 -6.313003 -28.393720 -17.369965 1.376715 9.589510 -14.800088 14.324233 -155.432498 73.714379 26.647889 -7.563443 -49.064872 -21.571042 -49.781964 16.323140 -1.831410 4.339912 1.792774 -35.344655 
-110.980598 73.606537 418.690796 107.430003 15.039559 -64.423826 -154.357890 -9.278912 174.973204 -9.086062 -5.308032 -0.083322 70.378194 1.082911 2.464275 21.454558 0.003118 0.000014 104.417453 0.645303 -160.415626 -43.756599 5.605800 1.691569 74.833745 2.785502 14.078562 21.454555 -0.003092 -0.000001 14.438878 2.983787 -5.020148 18.615348 6.736607 -9.508493 18.299689 6.679174 -9.548633 -0.591351 21.213697 11.890632 -25.965548 -23.047995 26.864893 100.444489 -80.321406 78.725382 -34.262432 12.738281 -14.114429 -31.399302 -19.037204 1.542446 9.150004 -24.175210 6.660044 -158.994305 75.130804 22.973312 -8.794392 -47.718570 -19.875835 -46.351545 16.106295 -1.709745 6.894785 0.717553 -35.675290 
-113.681396 72.069107 413.113800 107.217598 15.652529 -61.670072 -154.669675 -9.607295 172.411091 -14.159389 -4.054153 1.863358 66.543268 -1.377762 -0.420950 21.454560 0.003106 0.000018 103.873858 2.189289 -165.074894 -44.584145 8.500563 6.536940 60.164841 -5.547158 -1.063316 21.454550 -0.003080 0.000002 14.962308 3.466155 -5.316430 19.614671 7.783242 -9.987688 19.298710 7.722948 -10.034092 2.545887 20.332602 11.971410 -28.477748 -23.881164 27.366362 99.456550 -80.266047 79.718020 -37.029420 12.942450 -21.201300 -35.540647 -19.168438 1.643855 9.959072 -28.591761 -5.001307 -163.146158 75.700865 18.719600 -8.583687 -46.249308 -19.802709 -42.266495 16.073230 -1.589045 9.542632 -0.414879 -36.251588 
-116.351402 70.191063 407.266907 106.146501 13.832030 -61.971263 -155.013411 -9.723398 169.339063 -25.290109 -2.371478 2.377898 64.011980 -2.440876 -1.921390 21.454562 0.003109 0.000019 102.538932 3.799815 -158.185351 -58.584520 4.095873 2.665099 66.370225 -6.254462 -11.115430 21.454557 -0.003085 0.000001 15.913506 3.635798 -4.722001 21.557474 8.086822 -8.702218 21.239978 8.034185 -8.750668 5.809994 19.097689 11.097511 -29.888891 -23.901173 26.165637 98.934949 -78.695957 80.379312 -40.568062 13.847398 -25.691758 -40.157254 -19.979505 1.814526 9.649534 -25.821265 -11.636452 -167.203017 75.321414 14.572801 -7.490977 -44.821532 -19.835709 -38.291096 15.651551 -1.456387 10.656726 -0.195835 -35.913975 
-118.296501 69.047256 402.030396 108.471901 12.060950 -63.656557 -160.706169 -12.317195 167.561711 -42.216320 -0.351488 0.033172 62.052262 -1.334248 -3.095351 21.454570 0.003115 0.000013 102.296665 0.677397 -158.281807 -66.447885 4.430438 3.925535 72.499405 -5.934514 -9.503818 21.454555 -0.003106 -0.000002 16.806954 4.082858 -3.580072 23.426198 8.804413 -6.274911 23.106118 8.766304 -6.328077 7.414864 17.053458 10.702240 -30.183982 -22.975626 24.868280 103.944646 -77.930136 75.437773 -44.008446 14.798983 -29.891216 -45.086164 -21.087977 2.029870 7.765045 -18.780657 -8.572091 -177.686948 75.161669 3.844700 -9.332781 -42.589440 -18.945148 -32.362512 14.697560 -1.257860 11.029313 0.703395 -31.701818 
-120.049400 68.970901 397.740814 110.817094 13.176117 -64.118469 -173.306747 -13.107697 172.607637 -62.051005 0.983407 -3.031638 67.827071 0.442819 -4.627108 21.454553 0.003104 0.000016 101.191336 -0.941893 -157.817354 -70.928578 4.413433 4.109660 77.102584 -5.287244 -8.313057 21.454551 -0.003090 0.000002 17.123913 4.249462 -3.052778 24.103642 9.039993 -5.166657 23.782652 9.008536 -5.221399 7.764899 17.081147 11.210678 -29.419636 -22.695957 25.000229 105.927676 -77.918088 73.453528 -46.084284 15.590679 -31.798847 -46.174247 -21.045969 2.060688 4.753130 -13.060895 -1.238086 169.431011 74.661105 -9.344396 -14.505350 -41.059382 -15.703320 -26.636478 13.645265 -1.082110 11.233529 0.476703 -29.242304 
-121.904503 69.782753 393.845886 112.235697 14.821620 -65.353395 172.889081 -11.627706 177.617007 -79.749965 2.143884 -4.597982 71.599603 1.458198 -5.185342 21.454560 0.003114 0.000018 101.760195 -2.429703 -156.622699 -72.739486 3.815966 3.284826 80.517589 -4.410574 -8.262266 21.454555 -0.003101 -0.000001 17.344647 3.960489 -2.589442 24.583449 8.379282 -4.287932 24.262633 8.353125 -4.338694 9.288066 17.789433 11.916850 -30.241356 -22.933747 25.939566 106.362759 -77.360123 73.067690 -46.456129 14.670717 -27.475133 -42.651495 -20.516252 1.919680 4.270614 -13.372480 4.356208 162.282481 74.744700 -16.645420 -20.491805 -41.638066 -8.196529 -27.177980 14.465818 -1.143869 11.300691 0.186513 -35.812608 
-123.860901 71.403008 389.911499 112.978794 16.446689 -66.574298 158.868001 -9.601509 -178.352044 -93.464582 3.297786 -4.697191 73.620505 1.860861 -4.111578 21.454548 0.003101 0.000014 103.948977 -3.891400 -156.639542 -72.501925 3.761207 2.414086 83.154616 -3.589193 -8.185825 21.454550 -0.003094 0.000000 17.515890 3.554816 -2.230806 24.951507 7.505826 -3.649408 24.631160 7.483528 -3.694857 9.908729 17.576344 12.376962 -30.429142 -22.602710 26.192520 107.459332 -77.077360 71.994258 -47.092040 13.551102 -22.932638 -37.081503 -19.153548 1.680565 4.209493 -13.626581 8.026155 157.131029 75.446276 -21.866583 -25.258190 -43.212773 -1.463300 -35.703209 17.127575 -1.489026 10.400584 1.962783 -45.284806 
-125.937401 73.559769 385.970703 112.876294 17.720516 -67.964637 145.618704 -7.654803 -175.509989 -101.781608 4.036296 -5.850752 77.152041 2.726806 -4.172370 21.454565 0.003113 0.000027 107.680664 -5.338197 -158.106954 -70.574992 4.174459 1.627222 85.111855 -2.845923 -7.859732 21.454553 -0.003091 0.000001 17.694642 3.007024 -2.069096 25.318864 6.392835 -3.435165 24.999240 6.371850 -3.473824 10.211193 16.939752 12.996231 -30.484842 -21.984579 26.438356 110.632003 -77.340780 68.789738 -47.443932 13.640384 -20.544277 -32.645360 -17.637987 1.479393 6.315775 -12.043514 9.144901 153.093417 75.405111 -25.981203 -28.703078 -43.504866 2.435099 -48.901911 19.335557 -2.003950 6.947708 4.761099 -51.955063 
-128.092300 76.208351 382.173096 111.806297 19.054220 -69.438831 133.144293 -5.988993 -173.711149 -104.022313 4.402461 -8.070372 80.113058 4.330999 -4.352238 21.454568 0.003106 0.000008 112.180291 -6.533599 -160.556109 -67.130924 4.070753 1.088723 85.990634 -2.254736 -7.060826 21.454551 -0.003090 0.000002 17.738911 2.364040 -2.027034 25.411502 5.114565 -3.489021 25.092679 5.093283 -3.519888 9.989731 16.049114 13.019898 -30.236933 -21.669805 26.184020 114.806478 -76.880213 64.639278 -46.475039 14.609454 -17.896539 -30.034292 -16.667615 1.363282 9.939838 -9.984359 5.561418 151.522009 75.265413 -27.588691 -31.389757 -44.021280 8.223614 -63.579198 18.658156 -2.487069 1.089617 7.418857 -55.834392 
-130.327698 79.022118 378.553986 109.501600 19.738632 -71.105275 123.201900 -4.702800 -172.670898 -100.296902 4.275066 -10.173238 81.686836 5.810726 -4.691533 21.454560 0.003100 0.000019 117.587212 -6.992994 -164.068630 -63.088292 3.756648 0.880868 85.463855 -1.903217 -5.901432 21.454551 -0.003076 0.000001 17.835139 1.625238 -2.089589 25.609444 3.671747 -3.769915 25.291410 3.648801 -3.792026 9.754423 15.172171 12.990984 -30.199910 -21.049311 25.776671 120.324000 -76.762447 59.100425 -45.596034 15.994703 -15.424019 -28.572934 -15.754175 1.277029 12.024678 -6.791080 1.851497 150.619017 75.465995 -28.495785 -34.041209 -45.320259 16.378679 -77.531438 14.302681 -2.761219 -5.493741 9.231646 -53.577506 
